<?xml version="1.0" encoding="UTF-8" standalone="no"?>
<svg
   xmlns:dc="http://purl.org/dc/elements/1.1/"
   xmlns:cc="http://creativecommons.org/ns#"
   xmlns:rdf="http://www.w3.org/1999/02/22-rdf-syntax-ns#"
   xmlns:svg="http://www.w3.org/2000/svg"
   xmlns="http://www.w3.org/2000/svg"
   xmlns:sodipodi="http://sodipodi.sourceforge.net/DTD/sodipodi-0.dtd"
   xmlns:inkscape="http://www.inkscape.org/namespaces/inkscape"
   version="1.1"
   id="Layer_1"
   x="0px"
   y="0px"
   width="600px"
   height="300px"
   viewBox="0 0 600 300"
   enable-background="new 0 0 600 300"
   xml:space="preserve"
   sodipodi:docname="skunkboard_usb.svg"
   inkscape:version="1.0.1 (c497b03c, 2020-09-10)"
   inkscape:export-filename="/Users/jjones/skunk_stuff/skunkboard_usb.png"
   inkscape:export-xdpi="51.200001"
   inkscape:export-ydpi="51.200001"><metadata
   id="metadata111"><rdf:RDF><cc:Work
       rdf:about=""><dc:format>image/svg+xml</dc:format><dc:type
         rdf:resource="http://purl.org/dc/dcmitype/StillImage" /><dc:title></dc:title></cc:Work></rdf:RDF></metadata><defs
   id="defs109">
	
	

		
		
		
		
		
		
		
		
		
		
		
		
		
		
		
		
		
		
		
		
		
		
		
		
		
		
		
		
		
		
		
		
		
		
		
		
		
		
		
		
		
		
		
		
		
		
		
		
		
		
	</defs><sodipodi:namedview
   pagecolor="#ffffff"
   bordercolor="#666666"
   borderopacity="1"
   objecttolerance="10"
   gridtolerance="10"
   guidetolerance="10"
   inkscape:pageopacity="0"
   inkscape:pageshadow="2"
   inkscape:window-width="1229"
   inkscape:window-height="747"
   id="namedview107"
   showgrid="false"
   inkscape:zoom="0.94166669"
   inkscape:cx="313.48499"
   inkscape:cy="205.70799"
   inkscape:window-x="51"
   inkscape:window-y="25"
   inkscape:window-maximized="1"
   inkscape:current-layer="layer2"
   inkscape:document-rotation="0" />
<g
   inkscape:groupmode="layer"
   id="layer1"
   inkscape:label="background"
   style="display:inline"><path
     id="rect2"
     d="M 0,0 H 600 V 300 H 0 Z"
     style="display:inline" /></g><g
   inkscape:groupmode="layer"
   id="layer2"
   inkscape:label="USB logo"><path
     style="fill:#000000;stroke-width:0.236301"
     id="path1096"
     d="" /><path
     style="fill:#000000;stroke-width:0.236301"
     id="path1076"
     d="" /><path
     style="fill:#ffffff;stroke:none;stroke-width:0.333017"
     d="m 257.96975,297.6945 c -13.736,-1.8075 -23.35001,-7.4238 -27.77339,-16.22458 -1.31203,-2.61041 -2.53116,-6.91752 -2.53116,-8.94237 v -1.27881 h -6.49383 c -4.97801,0 -6.49167,-0.0972 -6.48456,-0.41627 0.006,-0.22895 1.24165,-5.88607 2.74786,-12.57139 l 2.73859,-12.15512 5.49431,-0.0934 5.49431,-0.0934 1.13773,-2.0712 c 7.03768,-12.81174 21.00029,-21.98848 37.56931,-24.15424 5.64644,-0.73806 89.43718,-0.74094 89.20266,-0.0331 -0.0857,0.2585 -0.62562,2.64295 -1.19994,5.29876 -0.57434,2.65581 -1.11326,5.07489 -1.19761,5.37573 -0.13811,0.49255 0.60171,0.56269 7.43385,0.70476 8.06861,0.16778 9.96191,0.4833 13.38766,2.23098 2.17893,1.1116 4.56874,3.52623 5.5753,5.63316 0.75948,1.58975 0.91761,2.43299 1.04354,5.56457 0.21165,5.26345 -0.82374,8.58907 -3.5743,11.48051 l -1.31371,1.38101 1.13288,1.71431 c 2.86132,4.32982 2.83522,11.3929 -0.0644,17.435 -1.32644,2.76401 -5.08506,6.47286 -7.88981,7.78536 -4.26559,1.9961 -4.75385,2.0614 -17.00184,2.27359 l -11.29667,0.19568 -0.4412,1.99811 c -0.24267,1.09896 -0.82776,3.68401 -1.30021,5.74455 l -0.85902,3.74644 -40.01983,-0.0342 c -31.9854,-0.0273 -40.72182,-0.12663 -43.51651,-0.49438 z m 58.32976,-14.31385 c 4.69804,-0.96212 8.76231,-3.25646 11.42126,-6.44747 4.08973,-4.9081 4.63546,-12.03957 1.29521,-16.92582 -2.2077,-3.22952 -5.34616,-4.96542 -12.77124,-7.06386 -2.65382,-0.75001 -5.44635,-1.66439 -6.20561,-2.03194 -2.99572,-1.45019 -2.62287,-5.04109 0.65226,-6.28199 0.51561,-0.19536 2.10442,-0.35521 3.53069,-0.35521 2.14791,0 2.78668,0.13038 3.71992,0.75929 1.28866,0.86843 1.95693,1.99815 1.96403,3.32017 l 0.005,0.91579 h 6.87501 6.87501 l -0.20779,-2.24786 c -0.56391,-6.10043 -5.23283,-10.95049 -12.16458,-12.63652 -3.0817,-0.74957 -10.11196,-0.74008 -13.19055,0.0178 -5.75267,1.41619 -10.22186,4.70656 -12.41324,9.139 -1.19375,2.41458 -1.24966,2.6775 -1.24966,5.87598 0,2.91129 0.11275,3.58733 0.86394,5.17988 1.86241,3.94832 5.04667,6.05204 13.12277,8.66973 5.56062,1.80236 7.91349,2.90408 8.48582,3.97348 0.18652,0.34853 0.33914,1.23148 0.33914,1.96209 0,2.74779 -2.64933,4.43622 -7.02246,4.47549 -4.13514,0.0372 -6.37135,-1.64274 -6.83451,-5.1342 l -0.21556,-1.62497 h -6.95051 -6.95046 l 0.002,0.74929 c 0.007,1.91898 0.79237,5.25327 1.67336,7.09921 1.09617,2.29683 3.53679,4.95084 5.7403,6.24217 4.89228,2.86707 12.62229,3.80147 19.60998,2.37046 z m -47.22653,0.0438 c 2.9889,-0.57187 7.0527,-2.14549 8.98165,-3.47797 2.07525,-1.43353 4.56983,-4.10573 5.93158,-6.3539 1.30136,-2.14846 2.78994,-6.48803 3.14579,-9.17066 0.21452,-1.61721 5.64611,-28.04743 6.00672,-29.22882 0.16883,-0.55312 -0.26595,-0.58382 -7.07305,-0.49953 l -7.25294,0.0899 -0.28269,1.33206 c -0.15547,0.73263 -1.55623,7.47522 -3.11279,14.98354 -3.13159,15.1057 -3.61659,16.60573 -6.12875,18.95556 -1.84315,1.72406 -3.72209,2.35596 -6.15225,2.06904 -3.00571,-0.35486 -4.44368,-1.99902 -4.70965,-5.38495 -0.1585,-2.01789 0.1865,-4.14237 2.67454,-16.46996 1.57109,-7.78428 2.93575,-14.49041 3.03257,-14.90252 l 0.17606,-0.74929 -7.24947,0.002 -7.24946,0.002 -3.41893,16.56666 c -1.8804,9.11166 -3.41645,17.19019 -3.41343,17.9523 0.007,1.73786 0.99894,4.97134 2.10344,6.85605 1.99389,3.40231 6.55992,6.35585 11.38926,7.36716 3.04048,0.6367 9.43741,0.66893 12.6018,0.0635 z m 97.09796,-1.30535 c 4.62658,-1.22252 8.48012,-3.76603 10.23029,-6.75248 2.02876,-3.46181 2.73782,-8.84845 1.60311,-12.17863 -0.67203,-1.97233 -2.47567,-4.05497 -4.5257,-5.22579 l -1.63416,-0.93331 2.15919,-1.06296 c 3.53516,-1.74035 5.60688,-4.71845 6.2721,-9.01612 0.67312,-4.34871 -0.88529,-8.11285 -4.12485,-9.96304 -3.41667,-1.95134 -4.60451,-2.06544 -20.4353,-1.963 l -14.3144,0.0927 -3.73486,17.64992 c -2.05417,9.70745 -4.32582,20.46975 -5.04808,23.91624 l -1.31321,6.26635 16.36532,-0.1328 c 14.02704,-0.11383 16.67039,-0.21341 18.50055,-0.69701 z m -18.61982,-10.9536 c -1.4e-4,-0.22895 0.39916,-2.41862 0.88733,-4.86592 l 0.88757,-4.44965 5.52324,0.13787 c 4.38731,0.10951 5.7452,0.25555 6.60243,0.71014 1.73097,0.91791 2.22357,2.00684 2.12135,4.68942 -0.0517,1.35609 -2.18533,3.31946 -4.14309,3.81242 -2.15905,0.54366 -11.87851,0.51561 -11.87883,-0.0343 z m 3.66316,-17.81643 c -1.4e-4,-0.13736 0.32059,-1.86072 0.71274,-3.82969 l 0.71299,-3.57994 h 4.73236 c 5.57434,0 6.70706,0.29086 7.37699,1.89421 0.97173,2.32567 -0.34808,4.66607 -3.04478,5.3993 -1.4925,0.40579 -10.48989,0.50542 -10.4903,0.11612 z"
     id="path1232"
     sodipodi:nodetypes="ssscscscccsssssssssscsssscsscsssssssssssccccssssssssssscccssssscssssscssssssscccssssccsssscsssscsscsssscsssssssscssss" /></g><g
   inkscape:groupmode="layer"
   id="layer3"
   inkscape:label="logo"
   style="display:inline"><path
     fill="none"
     stroke="#ffffff"
     stroke-width="0.0938"
     stroke-miterlimit="10"
     d="m 544.3,55.4 c 2.7,-2.7 4.8,-6.1 8.3,-7.9 0,3.5 -2.5,6 -4.6,8.5 -2.8,3.4 -6.2,6.4 -8.6,10.2 6.6,0 8.199,-8.1 14,-9.6 -1,2 -2.4,3.7 -3.4,5.7 -0.6,2 -0.5,4.2 -1.9,5.8 -1.899,3.2 -5.399,4.6 -7.699,7.3 -4.801,5.2 -9.101,10.9 -14,16.1 -2.4,2.7 -6.801,2.8 -8.601,6.2 -3.1,5.2 -8.1,9.1 -10.399,14.6 -1.601,4.2 -5.601,6.5 -8.5,9.6 -2.4,2.9 -5.801,4.6 -8.5,7.2 0.399,-2.5 0.899,-4.9 1.1,-7.3 -3,3 -4.8,7 -7.9,9.8 0.2,-2 0.7,-4 1.101,-6.1 -1.4,-0.4 -2.8,-0.9 -4.2,-1.5 0.4,-2 0.9,-4 1.5,-6 -0.9,0 -2.7,0 -3.6,0 1.899,-6.8 7.399,-11.7 11.3,-17.4 2,-2.6 3.2,-5.9 5.6,-8.3 5.7,-5.7 11.2,-11.7 18.2,-15.8 4.5,-4.5 8.2,-9.8 12.4,-14.6 2.5,-2.8 4.699,-6.3 8.399,-7.6 -1.399,4.6 -5,7.9 -7.3,11.9 1.8,-0.5 3.7,-0.7 5.2,-1.9 2.399,-2 3.7,-5.1 6.399,-6.7 1.7,-1.1 3.8,-1.4 5.7,-2.2 z"
     id="path8"
     style="display:inline;fill:#ffffff;stroke:none;stroke-width:0;stroke-miterlimit:10;stroke-dasharray:none" /><path
     fill="none"
     stroke="#ffffff"
     stroke-width="0.0938"
     stroke-miterlimit="10"
     d="m 462.2,67.4 c 1.7,-2.2 4.7,-3.3 7.399,-2.2 1.801,1.3 1,3.8 1,5.7 -1.5,11.2 -3.899,22.3 -6.5,33.2 -2.199,5.2 -6.899,9.1 -8.3,14.8 -2.399,7.4 -2.7,15.2 -5.3,22.5 -0.7,3.9 -0.7,8 -2.4,11.7 -2.5,5.801 -1.399,12.4 -4,18.101 -1.5,3.3 -2.199,6.8 -2.6,10.399 -1.6,2.801 -2.9,5.7 -3.5,8.9 -0.9,-0.1 -2.7,-0.3 -3.5,-0.3 0.5,-2.2 2.1,-3.8 3.7,-5.3 -0.101,-2.4 -0.601,-4.9 0.8,-6.9 1.4,-2.3 1,-5 0.9,-7.5 -1.4,1 -2.101,2.4 -2.5,4 -2.101,7 -4.9,13.8 -9.301,19.7 -1,-1.601 -2,-3.2 -3,-4.8 -1.3,4.199 -1.199,8.699 -3.6,12.5 -1.6,-0.801 -3.1,0.199 -4.4,1 -0.5,-1.601 -1.1,-3.2 -1.6,-4.9 0.7,-1.1 1.5,-2.2 2.2,-3.3 -0.7,-1.8 -1.9,-3.601 -1.4,-5.601 0.8,-6.199 4.7,-11.199 6.9,-16.8 1.2,-1.6 -0.101,-3.399 -0.3,-5 1.899,-2 2.699,-4.6 3,-7.3 0.199,-3.2 3.199,-5.1 5.399,-7.1 -0.1,-2.601 -0.8,-5.2 0,-7.7 2,-6.9 4.3,-13.7 6.7,-20.4 1,-2.1 0.1,-4.4 0.1,-6.7 1.101,-3.2 4,-5.5 5,-8.8 1.2,-4 3,-8 2.9,-12.2 0,-4 2.2,-8 1.2,-11.9 -3,-3.7 -2.5,-8.6 -3.3,-12.9 1.899,-0.3 4.3,-0.4 5,-2.5 0.899,-2.7 3.8,-3.2 6.199,-3.9 C 457.7,64.8 459.9,69.6 462.2,67.4 Z"
     id="path20"
     style="display:inline;fill:#ffffff;stroke:none;stroke-width:0;stroke-miterlimit:10;stroke-dasharray:none" /><path
     id="path28"
     style="display:inline;fill:#ffffff;stroke:none;stroke-width:0;stroke-miterlimit:10;stroke-dasharray:none"
     d="m 492.99609,141.97266 c -4.96604,0.0743 -9.91489,0.90859 -14.5957,2.52734 -4.5,1.7 -9.50017,4.5 -10.70117,9.5 0.2,5.2 6.899,6.9 7.5,12 0.5,7.4 -3.10178,14.2 -5.30078,21 -4.2,12.1 -9.70039,25.1 -5.90039,38 3.7,11.8 15.30117,18.59961 26.20117,22.59961 13.7,5.7 29.19883,5.40039 43.29883,1.90039 6.3,-1.5 12.5,-4.3 16.5,-9.5 3.701,-5 7.50156,-10.90178 7.10156,-17.30078 -1.8,0.899 -3.50022,2.10017 -5.19922,3.20117 -6.7,4.5 -15,6.29961 -23,6.09961 -4.2,0 -8.9,-2.20078 -10.5,-6.30078 C 516.50039,220.89922 517.3,215.3 520,211 c 6.4,-11.1 13.00039,-22.9 13.40039,-36 0.1,-13.2 -9.60117,-25.09961 -21.70117,-29.59961 -5.90625,-2.3625 -12.31821,-3.52331 -18.70313,-3.42773 z m -9.71093,5.0039 C 483.51172,146.95645 483.75,146.9625 484,147 c 9.5,0.4 19.70039,0.59961 27.90039,6.09961 6.399,3.801 9.79961,11.60139 9.09961,18.90039 -0.9,9.8 -4.00039,19.5 -8.90039,28 -2.399,4.7 -5.49883,9.09922 -6.79883,14.19922 -0.8,5.399 -0.80139,11.90039 3.59961,15.90039 4.199,3.7 9.69922,5.69861 15.19922,6.59961 5.7,1 11.4,-0.39883 17,-1.29883 1.5,-0.5 2.69978,0.50022 3.80078,1.19922 -12.2,7.2 -28.19978,8.60078 -41.30078,2.80078 -5.3,-2.7 -11,-5.4 -15,-10 -4.5,-4.4 -7.1,-10.99978 -5.5,-17.30078 2.601,-9.899 5.301,-19.80139 10,-28.90039 3.301,-6.2 4.70056,-14.101 1.10156,-20.5 -3.001,-6.1 -9.80156,-8.69961 -14.60156,-13.09961 1.05,-1.05 2.09961,-2.48223 3.68555,-2.62305 z" /><path
     fill="none"
     stroke="#ffffff"
     stroke-width="0.0938"
     stroke-miterlimit="10"
     d="m 282.6,68.7 c 3,-0.7 7.9,-2.5 9.6,1.1 1.2,1.9 1.7,4.2 2.6,6.3 1.1,1.5 3,2.1 4.5,3.1 -2.3,6.8 -7,12.4 -10.6,18.5 -1.5,2.4 -1.1,5.4 -1.7,8.1 -1.1,1.6 -2.6,3 -3.7,4.7 -0.9,2.6 -0.8,5.7 -2.9,7.9 -1.5,2.3 -4.6,3.9 -4.9,6.9 -0.5,4.6 -4.4,7.9 -5.9,12.1 0,6.2 -4.4,11.2 -6.4,16.8 -0.4,3.899 -2.3,7.8 -1,11.7 5.7,0.1 9.8,-4.601 14.5,-7.2 4.6,-2.4 5.7,-8.101 9.9,-11.1 2.9,-3.2 7.2,-5.3 8.5,-9.7 2.6,-6.9 5.8,-13.7 6.5,-21.2 0.7,-3.4 0.4,-7.4 3.301,-9.8 2.8,-2.5 2,-6.8 4.399,-9.6 4.601,-6 6.8,-13.4 10,-20.2 2.601,-0.2 5.3,-0.3 7.8,1 2.7,1.3 6.301,0.9 8.5,3.2 -0.199,3.7 1,7.2 2.2,10.6 -8.5,19.4 -17.1,38.9 -25.399,58.5 -2.601,5.7 -2.801,12.2 -3.2,18.4 2.8,0.4 5.7,0.3 8.399,1.3 1.9,-4 4.2,-7.699 5.801,-11.699 1.199,-3.2 1.3,-6.801 3.3,-9.601 6.3,-7.6 9.2,-17.2 12.6,-26.3 1.601,-5 6,-8.3 8.5,-12.7 2.8,-5.1 5.7,-10.2 9.101,-14.9 2.899,-3.6 6.199,-6.7 9.399,-10 -0.2,-2.3 -0.6,-4.6 -0.7,-6.9 1,-1.7 2.7,-2.9 4.101,-4.2 1.5,2 3.5,3.7 6,4.4 3.1,1.5 8,-1.5 9.7,2.4 1.399,4.4 -1,8.9 -0.601,13.4 -1.6,14.1 1.9,27.9 1.7,42 -0.2,8.2 0.9,16.4 1.7,24.6 1.6,-4 3.5,-7.899 6.399,-11.1 2.5,-8.3 0.9,-17 2.4,-25.4 0.3,-3.7 1.3,-7.2 1.7,-10.9 -1.3,-4.8 -2,-10 -0.2,-14.7 1.7,-5.2 2.9,-10.5 4,-15.8 2.5,-0.6 5.1,-1 7.7,-1.2 0.5,-1.7 1,-3.4 1.6,-5.1 4,0.3 8.3,0.9 11.9,2.9 0.6,1 1.1,2.1 1.6,3.1 1.2,-0.2 2.4,-0.4 3.7,-0.6 2.1,4.1 1.4,8.7 1.3,13.1 -1.5,2.1 -3.1,4.1 -3.5,6.7 -1,5.5 -3.399,10.5 -5.7,15.5 -2.6,5.2 -1.699,11.2 -2.199,16.8 -3.301,9.3 -8.301,17.9 -12,27.1 -2.301,6.8 -4.2,13.7 -6.5,20.5 -2.5,6.5 -8.2,11.1 -11,17.4 -1.601,-3.5 -3.5,-6.801 -6.4,-9.301 2.4,-5 -1.2,-9.699 -3.5,-14 -0.6,-3.399 -1.3,-6.8 -2.2,-10.199 -1.1,-0.4 -2.2,-0.7 -3.3,-1 -0.8,-4.5 -1.9,-8.9 -2.7,-13.4 -0.1,-1.8 -2.399,-2.4 -2.5,-4.2 -0.899,-6.5 0.5,-13.2 -1,-19.7 -1.399,-6.3 -2.3,-12.8 -4.2,-19 -2.6,5.7 -3.6,12.1 -7,17.5 -4.899,8.3 -9.6,16.9 -15.199,24.7 -3.5,11.8 -8.2,23.2 -12.601,34.601 -1,3 -3.5,5.1 -5,7.8 -3.7,5.399 -4.2,12.6 -9.2,17.1 -3.5,-0.2 -5.199,3.4 -8.6,3.3 -0.6,1.2 -1.1,2.4 -1.7,3.601 -2.3,0.6 -4.5,-0.3 -5.9,-2.3 -1.2,-2.801 0.5,-5.601 1.7,-8.101 3.3,-5.8 4.1,-12.6 6.4,-18.7 2.1,-2.1 4.1,-4.199 5.6,-6.8 -2.1,-0.5 -4,-1.3 -6,-2 -3.3,1.9 -6.3,4.5 -10.1,5.2 -2.6,-0.8 -5.4,-1.8 -7,-4.1 -3.5,-7.101 -1,-15.101 -2.1,-22.601 -3,4.4 -5.2,9.7 -9.7,12.9 -2.8,2.2 -5.5,4.7 -8.6,6.5 -4.4,1.3 -9,1.5 -13.4,1.2 -3.2,-1.801 -5.3,-5 -7.1,-8 0.2,-8.101 -1.2,-16.4 1.6,-24.2 2.6,-8.7 5.2,-17.5 7.9,-26.2 1.4,-4.8 5.4,-8.2 7.4,-12.7 0.6,-2.3 -0.4,-4.9 0.8,-7.1 2.4,-5.4 5.1,-10.6 8.2,-15.7 1.5,-2 0.5,-4.9 2.1,-6.9 1.999,-2.9 3.799,-6.1 6.499,-8.4 z"
     id="path24"
     style="display:inline;fill:#ffffff;stroke:none;stroke-width:0;stroke-miterlimit:10;stroke-dasharray:none" /><path
     fill="none"
     stroke="#ffffff"
     stroke-width="0.0938"
     stroke-miterlimit="10"
     d="m 221.6,61.7 c 2.5,-1.4 4.8,-3.1 7.3,-4.4 2.8,2.3 3.3,5.9 2.8,9.3 -4.6,7.9 -10.5,14.9 -15.9,22.1 -2.2,3.5 -3.5,7.4 -4.9,11.3 -1.2,2.8 -0.5,6.1 -1.8,9 -1.3,3 -3,5.9 -4.4,8.9 8.4,-2.3 16.7,-6.1 23,-12.2 4.8,-4.8 7.7,-11.1 11,-17 1.3,-2.3 3.8,-3.5 5.2,-5.7 2.6,-3.9 5.2,-7.8 7.9,-11.5 1.8,0.6 3.5,1.1 5.3,1.6 1.9,4.6 3.3,9.5 3.5,14.5 -2,4.1 -3.9,8.5 -7.4,11.6 -3.7,3.6 -7.3,7.4 -11.1,11 -4.4,3.6 -9.3,6.6 -13.8,10.2 -4.3,2.2 -9,3.8 -13.7,4.8 5.5,6 12.3,12.2 13.2,20.8 2.2,11.9 3.9,24 5.5,36 0.5,2.6 -0.1,5.1 -0.8,7.6 -0.9,-2.399 -1.3,-5 -2.4,-7.399 -2,4.2 -2.7,8.899 -2.1,13.5 -0.7,0.7 -1.9,2 -2.5,2.6 -1.4,-3.899 -0.3,-8.1 -0.4,-12.1 -0.8,-3 -1.7,-6 -2.2,-9 0,-1.601 -1.4,-2.5 -2.8,-2.7 0,2.3 0.7,4.8 -0.8,6.8 -2.8,-3.7 -3.4,-8.2 -4.9,-12.399 0.5,-6.2 3.2,-12.4 1,-18.5 -0.6,-2.7 -3.3,-4.1 -4.3,-6.6 -1.4,-2.6 -1.7,-6.2 -4.3,-7.8 -3.7,-0.7 -7.6,-0.4 -11.2,-1.8 -2,3.4 -3.4,7.1 -4.6,10.9 -2.6,7.4 -5,14.9 -7.5,22.3 -2.2,7.1 -7.1,13.1 -8.5,20.5 -1.3,0.3 -1.4,-1.601 -1.5,-2.5 0.2,-1.7 -0.8,-3.2 -1.8,-4.601 -2.6,4.4 -4.1,9.2 -6.2,13.8 0,-2.399 0.8,-5 -0.9,-7 -1.4,3.801 -1.5,8.5 -5.4,10.9 -1.2,-6.6 2,-12.9 3,-19.4 5.1,-9.5 9.1,-19.5 13.6,-29.3 1.5,-3.7 3.6,-7.4 4.3,-11.5 -2.2,-0.8 -4.8,-1.3 -6,-3.6 -2.2,0.1 -4.3,0 -6.4,-0.1 5.1,-5.7 11.8,-10 18.9,-12.8 4.2,-4.5 4.3,-11.1 6.9,-16.4 2.8,-7.8 6.9,-15.2 8.5,-23.4 1.3,-5.7 3.3,-11.1 5.4,-16.6 0.9,-0.4 1.8,-0.8 2.7,-1.2 1,1.1 2,2 3,2.9 0.7,-1.5 1.2,-3.1 1.8,-4.7 2.2,-0.201 4.5,-0.101 6.7,-0.701 z"
     id="path16"
     style="display:inline;fill:#ffffff;stroke:none;stroke-width:0;stroke-miterlimit:10;stroke-dasharray:none" /><path
     fill="none"
     stroke="#ffffff"
     stroke-width="0.0938"
     stroke-miterlimit="10"
     d="m 173.3,189.2 c 1.3,0.1 1.6,0.7 0.6,2.1 -1.3,-0.1 -1.6,-0.8 -0.6,-2.1 z"
     id="path36"
     style="display:inline;fill:#ffffff;stroke:none;stroke-width:0;stroke-miterlimit:10;stroke-dasharray:none" /><path
     fill="none"
     stroke="#ffffff"
     stroke-width="0.0938"
     stroke-miterlimit="10"
     d="m 129.4,55.5 c 8.5,-2.7 17.8,-6.8 26.6,-3.1 5,-0.4 9.9,-1.7 15,-1.4 3.5,0.2 7,0.3 10.5,0.6 1.1,1.3 2,2.6 3.2,3.8 3.9,1.4 8.4,2.2 11.1,5.7 -1.9,2.7 -3,6 -5.1,8.6 -2.6,1.4 -4.7,3.5 -5.5,6.4 -2.4,0.8 -4.7,1.8 -7.2,2.2 -2.4,-0.3 -4.5,-2 -6.9,-2.1 -6,-0.5 -11.9,-1.2 -17.9,-0.9 -5.7,0.8 -11.4,1.9 -16.8,4.1 -2.5,1.1 -5.4,1 -8,1.8 -3.1,2.4 -5.1,5.8 -7.6,8.7 -1.3,1.3 -2,4.1 -0.2,5.3 3.5,2.6 7.1,5 10.5,7.6 3.4,3.1 8.9,1.6 12.1,4.9 4,3.9 7,8.6 9.5,13.6 1.6,2.9 1.3,6.3 1.8,9.5 0.3,4 2.1,8 1.3,12.2 -0.9,6.5 -2.1,13.2 -4.1,19.5 -2.7,4.3 -5.9,8.2 -8.8,12.4 -4.6,5.6 -10.9,9.3 -16.9,13.1 -8.5,4.8 -17.2,9.6 -26.7,12.2 -14.7,3.6 -30,1.1 -44.5,-2 -6.6,-1.3 -13.6,-2.7 -18.7,-7.3 -4.4,-4.7 -10.4,-7.5 -14.8,-12.2 -1.4,-1.4 -0.8,-3.3 -0.5,-5 0.6,-2.4 -1,-4.601 -1.9,-6.601 1.6,-2.699 3.5,-5.399 3.8,-8.6 0.9,-2.4 -1.1,-4.5 -1.7,-6.6 1.7,-0.4 3.4,-0.101 5.1,0.5 1.3,-2.101 3.7,-4.601 6.4,-3.4 2.1,5 5.2,9.7 10.1,12.5 9.3,5.6 18.5,12.1 29.4,14.5 9.1,2.1 18.7,2.2 28,1.2 9,-1.2 18.3,-3.7 25,-10.101 7.1,-7.3 10.6,-17.399 11.8,-27.3 1.5,-6.5 -1.8,-12.7 -3.9,-18.8 -5.2,-0.8 -10.2,-2.2 -15.5,-2.4 -1.5,-0.8 -2.6,-2 -4,-2.9 -7.2,-1 -13.4,-5.7 -17.8,-11.3 -2.2,-4.3 -4,-8.9 -5.7,-13.5 0.4,-2.5 1,-5 0.7,-7.6 0.9,-3.6 4.2,-5.8 5.4,-9.3 1.3,-3.4 3.3,-6.6 6.4,-8.5 6.6,-4.3 13.4,-8.2 20.5,-11.5 2,1.002 4.2,2.802 6.5,1.502 z"
     id="path12"
     style="display:inline;fill:#ffffff;stroke:none;stroke-width:0;stroke-miterlimit:10;stroke-dasharray:none" /></g>

</svg>
